<?xml version="1.0" encoding="utf-8"?>
<!-- Generator: Adobe Illustrator 16.0.4, SVG Export Plug-In . SVG Version: 6.00 Build 0)  -->
<!DOCTYPE svg PUBLIC "-//W3C//DTD SVG 1.1//EN" "http://www.w3.org/Graphics/SVG/1.1/DTD/svg11.dtd">
<svg version="1.1" id="Ebene_1" xmlns="http://www.w3.org/2000/svg" xmlns:xlink="http://www.w3.org/1999/xlink" x="0px" y="0px"
	 width="100px" height="28px" viewBox="0 0 100 28" enable-background="new 0 0 100 28" xml:space="preserve">
<g>
	<g>
		<path fill="#FFFFFF" d="M55.766,18.379L55.4,19.855c-1.096,0.426-1.969,0.752-2.621,0.977s-1.41,0.335-2.271,0.335
			c-1.316,0-2.34-0.325-3.069-0.976c-0.729-0.649-1.096-1.456-1.096-2.418c0-0.262,0.014-0.6,0.042-1.01
			c0.027-0.409,0.119-0.92,0.276-1.532l1.201-4.363c0.122-0.47,0.212-0.894,0.274-1.271c0.061-0.377,0.09-0.687,0.09-0.927
			c0-0.525-0.125-0.935-0.379-1.23c-0.255-0.295-0.684-0.442-1.289-0.442c-0.375,0-0.91,0.143-1.605,0.433
			c-0.693,0.291-1.47,0.829-2.329,1.616l-2.747,11.841h-5.473l2.355-10.086c0.065-0.305,0.151-0.705,0.255-1.197
			c0.105-0.491,0.159-0.902,0.159-1.23c0-0.622-0.13-1.051-0.391-1.286c-0.258-0.236-0.73-0.354-1.416-0.354
			c-0.354,0-0.716,0.055-1.087,0.164c-0.37,0.109-0.686,0.214-0.953,0.312l0.366-1.477c0.894-0.359,1.75-0.67,2.566-0.926
			c0.817-0.257,1.591-0.386,2.32-0.386c1.301,0,2.276,0.253,2.924,0.763c0.646,0.508,1.073,1.221,1.284,2.14h0.115
			c1.083-0.973,2.199-1.73,3.352-2.272c1.153-0.541,2.381-0.81,3.684-0.81c1.226,0,2.182,0.333,2.872,0.999
			c0.69,0.667,1.035,1.476,1.035,2.427c0,0.253-0.02,0.605-0.059,1.058c-0.038,0.454-0.129,0.938-0.272,1.451l-1.26,4.61
			c-0.111,0.382-0.21,0.821-0.299,1.312c-0.089,0.492-0.132,0.863-0.132,1.116c0,0.633,0.14,1.064,0.422,1.295
			c0.281,0.23,0.775,0.344,1.481,0.344c0.331,0,0.707-0.057,1.127-0.172C55.275,18.568,55.577,18.467,55.766,18.379z"/>
		<path fill="#FFFFFF" d="M68.836,18.84h-0.132c-0.386,0.324-0.753,0.623-1.103,0.896c-0.348,0.271-0.786,0.541-1.316,0.814
			c-0.465,0.237-0.952,0.436-1.467,0.594s-1.08,0.236-1.697,0.236c-1.922,0-3.371-0.559-4.343-1.678
			c-0.971-1.12-1.456-2.654-1.456-4.598c0-1.496,0.269-2.9,0.812-4.211c0.542-1.31,1.266-2.463,2.171-3.458
			c0.916-0.982,1.988-1.761,3.214-2.334c1.228-0.572,2.52-0.859,3.878-0.859c0.994,0,1.864,0.114,2.61,0.343
			c0.743,0.23,1.356,0.542,1.831,0.936l5.08-1.035l0.231,0.264l-2.44,10.087c-0.088,0.339-0.182,0.762-0.28,1.27
			s-0.149,0.895-0.149,1.158c0,0.623,0.144,1.052,0.43,1.286c0.287,0.236,0.783,0.352,1.49,0.352c0.31,0,0.682-0.06,1.118-0.181
			c0.437-0.119,0.743-0.217,0.918-0.295l-0.362,1.477c-1.094,0.426-1.967,0.753-2.625,0.977c-0.655,0.224-1.413,0.336-2.273,0.336
			c-1.135,0-2.043-0.223-2.721-0.664C69.574,20.111,69.102,19.539,68.836,18.84z M70.809,8.438c0-0.241-0.035-0.525-0.101-0.852
			s-0.183-0.606-0.349-0.835c-0.197-0.285-0.458-0.5-0.777-0.648c-0.321-0.147-0.719-0.221-1.193-0.221
			c-0.729,0-1.401,0.26-2.014,0.779c-0.613,0.519-1.158,1.208-1.633,2.071c-0.465,0.852-0.83,1.843-1.095,2.973
			c-0.267,1.13-0.397,2.286-0.397,3.464c0,0.536,0.041,1.033,0.123,1.492c0.084,0.458,0.219,0.847,0.408,1.162
			c0.197,0.339,0.465,0.601,0.803,0.786s0.761,0.279,1.271,0.279c0.521,0,1.019-0.15,1.5-0.451s0.927-0.67,1.335-1.105L70.809,8.438
			z"/>
		<path fill="#FFFFFF" d="M98.653,8.326c0,1.542-0.262,3.106-0.786,4.689c-0.524,1.586-1.261,2.99-2.211,4.216
			c-1.128,1.433-2.374,2.487-3.743,3.166c-1.369,0.678-2.793,1.017-4.272,1.017c-1.966,0-3.527-0.453-4.686-1.361
			s-1.738-2.212-1.738-3.909c0-0.524,0.088-1.089,0.264-1.691c0.176-0.602,0.398-1.308,0.663-2.117
			c0.222-0.69,0.427-1.371,0.62-2.045s0.289-1.311,0.289-1.914c0-0.59-0.131-1.011-0.396-1.263s-0.74-0.378-1.424-0.378
			c-0.353,0-0.716,0.055-1.084,0.164c-0.369,0.109-0.689,0.214-0.953,0.313l0.363-1.477c0.896-0.36,1.751-0.67,2.566-0.926
			c0.816-0.258,1.589-0.386,2.317-0.386c1.314,0,2.327,0.326,3.038,0.977c0.711,0.652,1.067,1.459,1.067,2.423
			c0,0.711-0.097,1.466-0.29,2.265c-0.193,0.8-0.394,1.517-0.603,2.152c-0.188,0.568-0.384,1.223-0.588,1.961
			c-0.204,0.74-0.306,1.327-0.306,1.765c0,0.932,0.227,1.676,0.68,2.234c0.452,0.557,1.182,0.838,2.186,0.838
			c1.501,0,2.805-0.557,3.908-1.665c1.104-1.11,1.659-2.605,1.659-4.487c0-0.185-0.013-0.387-0.036-0.606
			c-0.021-0.218-0.064-0.465-0.133-0.737c-0.121-0.252-0.358-0.519-0.712-0.804c-0.354-0.285-0.65-0.547-0.893-0.788
			c-0.324-0.316-0.604-0.691-0.847-1.123c-0.243-0.432-0.363-0.992-0.363-1.682c0-0.578,0.114-1.049,0.34-1.41
			c0.226-0.36,0.498-0.655,0.82-0.885c0.264-0.186,0.581-0.334,0.951-0.444c0.37-0.109,0.716-0.163,1.033-0.163
			c1.028,0,1.833,0.363,2.419,1.09C98.359,6.059,98.653,7.057,98.653,8.326z"/>
	</g>
	<g>
		<rect x="34.25" y="24.689" fill="#FFFFFF" width="64.75" height="2.311"/>
	</g>
	<path fill="#FFFFFF" d="M27.25,6.246C27.25,3.349,24.878,1,21.952,1H6.297C3.372,1,1,3.349,1,6.246v15.508
		C1,24.651,3.372,27,6.297,27h15.655c2.926,0,5.298-2.349,5.298-5.246V6.246z M13.497,21.724L9.61,18.965l0.001-0.001l-5.051-3.585
		l2.784-3.849l5.052,3.585l6.962-9.621l3.886,2.759L13.497,21.724z"/>
</g>
</svg>
